<svg width="500" height="500" viewBox="0 0 500 500" fill="none" xmlns="http://www.w3.org/2000/svg">
<g clip-path="url(#clip0_1_2)">
<rect width="500" height="500" rx="55" fill="#05B4FF"/>
<rect x="44" y="44" width="411" height="411" rx="34" fill="#05B4FF"/>
<path d="M251 396.8C179.4 396.8 134.6 364.4 115.8 317.2L160.6 283.2C169.4 325.6 202.2 355.2 252.2 355.2C295.8 355.2 323.8 335.6 323.8 306.8C323.8 271.2 287.4 268 245.8 265.6C206.2 263.2 127.4 261.2 127.4 191.2C127.4 133.2 181.4 101.6 245.8 101.6C311 101.6 356.2 131.2 373 170L325.8 200C318.2 167.2 289.4 143.2 244.6 143.2C204.2 143.2 179.8 160.4 179.8 186.8C179.8 217.2 209.8 219.6 253 222C297 224.4 377.8 227.6 377.8 302.4C377.8 361.2 322.2 396.8 251 396.8Z" fill="white"/>
</g>
<defs>
<clipPath id="clip0_1_2">
<rect width="500" height="500" rx="55" fill="white"/>
</clipPath>
</defs>
</svg>
