<svg width="135" height="22" viewBox="0 0 135 22" fill="none" xmlns="http://www.w3.org/2000/svg">
<path d="M8.16 17.3699C4.26496 17.3699 1.82784 15.6074 0.80512 13.0397L3.24224 11.1901C3.72096 13.4966 5.50528 15.1069 8.22528 15.1069C10.5971 15.1069 12.1203 14.0406 12.1203 12.4739C12.1203 10.5373 10.1402 10.3632 7.87712 10.2326C5.72288 10.1021 1.43616 9.99328 1.43616 6.18528C1.43616 3.03008 4.37376 1.31104 7.87712 1.31104C11.424 1.31104 13.8829 2.92128 14.7968 5.032L12.2291 6.664C11.8157 4.87968 10.249 3.57408 7.81184 3.57408C5.61408 3.57408 4.28672 4.50976 4.28672 5.94592C4.28672 7.59968 5.91872 7.73024 8.2688 7.8608C10.6624 7.99136 15.0579 8.16544 15.0579 12.2346C15.0579 15.4333 12.0333 17.3699 8.16 17.3699ZM21.0739 17.2829C18.5932 17.2829 17.0918 15.7379 17.0918 12.9744V5.40192H19.8553V12.4522C19.8553 14.193 20.8563 15.1286 22.2924 15.1286C24.3379 15.1286 25.6435 13.3008 25.6435 10.1021V5.40192H28.3852V17H25.6435V13.8448H25.056C24.8819 16.0643 23.2064 17.2829 21.0739 17.2829ZM31.1219 21.7872V5.40192H33.8854V8.23072H34.4512C34.7776 6.4464 36.2137 5.07552 38.4985 5.07552C41.6537 5.07552 43.8515 7.57792 43.8515 11.1683C43.8515 14.7805 41.6537 17.2829 38.4768 17.2829C36.2137 17.2829 34.7776 15.912 34.4512 14.1059H33.8854V21.7872H31.1219ZM37.4758 15.1286C39.6083 15.1286 41.088 13.5402 41.088 11.1901C41.088 8.81824 39.6083 7.22976 37.4758 7.22976C35.3433 7.22976 33.8854 8.81824 33.8854 11.1901C33.8854 13.5402 35.3433 15.1286 37.4758 15.1286ZM49.1769 17.2829C46.7833 17.2829 45.2166 15.7379 45.2166 13.6054C45.2166 11.9952 45.7171 10.8637 47.088 9.77568L47.632 9.34048C48.6547 8.55712 49.438 8.27424 50.7654 8.27424H52.2886V7.59968H45.3472V5.40192H56.7059V17H53.9424V13.8013H53.3766C53.0937 16.1078 51.3747 17.2829 49.1769 17.2829ZM50.526 15.1504C52.5497 15.1504 53.9424 13.4314 53.9424 10.1891V7.55616L49.9603 10.2979C48.6547 11.2118 48.1324 11.9734 48.1324 12.9526C48.1324 14.3235 49.1116 15.1504 50.526 15.1504Z" fill="white"/>
<path d="M65.5046 17C62.6758 17 61.109 15.4333 61.109 12.5174V7.59968H57.9756V5.40192H61.2178V2.0944L63.8508 0.68V5.40192H68.4422V7.59968H62.1753V8.25248H62.567C63.4374 8.27424 63.8508 8.81824 63.8508 9.6016V12.2781C63.8508 13.9318 64.6559 14.8022 66.2009 14.8022H68.4422V17H65.5046ZM70.0731 17V5.40192H72.8367V9.40576H73.4024C73.5983 6.57696 75.252 5.29312 77.8415 5.29312H79.2994V7.70848H77.6891C74.3599 7.70848 72.8367 9.68864 72.8367 13.279V17H70.0731ZM84.1969 17.2829C81.8033 17.2829 80.2366 15.7379 80.2366 13.6054C80.2366 11.9952 80.7371 10.8637 82.108 9.77568L82.652 9.34048C83.6747 8.55712 84.458 8.27424 85.7854 8.27424H87.3086V7.59968H80.3672V5.40192H91.7259V17H88.9624V13.8013H88.3966C88.1137 16.1078 86.3947 17.2829 84.1969 17.2829ZM85.546 15.1504C87.5697 15.1504 88.9624 13.4314 88.9624 10.1891V7.55616L84.9803 10.2979C83.6747 11.2118 83.1524 11.9734 83.1524 12.9526C83.1524 14.3235 84.1316 15.1504 85.546 15.1504ZM98.9963 17.2611C95.8193 17.2611 93.6215 14.7587 93.6215 11.1466C93.6215 7.57792 95.8193 5.07552 98.9963 5.07552C101.259 5.07552 102.695 6.4464 103.044 8.23072H103.609V0.0272006H106.351V17H103.609V14.1059H103.044C102.695 15.912 101.281 17.2611 98.9963 17.2611ZM99.9972 15.1069C102.13 15.1069 103.609 13.5184 103.609 11.1683C103.609 8.81824 102.13 7.22976 99.9972 7.22976C97.8647 7.22976 96.4068 8.81824 96.4068 11.1683C96.4068 13.5184 97.8647 15.1069 99.9972 15.1069ZM114.681 17.3264C110.786 17.3264 108.284 14.9763 108.284 11.2118C108.284 7.49088 110.786 5.032 114.681 5.032C118.794 5.032 121.231 7.68672 120.905 11.9952L113.071 11.9734C112.027 11.9734 111.592 11.647 111.526 10.6678H110.917L110.895 11.1683C110.895 13.7578 112.331 15.3245 114.66 15.3245C116.531 15.3245 117.837 14.2365 118.294 12.5174L120.317 14.3018C119.273 16.2384 117.271 17.3264 114.681 17.3264ZM111.026 9.97152H118.272C118.054 8.14368 116.618 7.0992 114.681 7.0992C112.723 7.0992 111.396 8.14368 111.026 9.97152ZM128.299 17.3046C125.013 17.3046 122.946 16.0426 122.076 14.0842L124.339 12.4522C124.752 14.2365 126.275 15.2374 128.386 15.2374C130.279 15.2374 131.476 14.4976 131.476 13.5402C131.476 12.2128 129.931 12.1475 128.06 12.0387C126.101 11.9517 122.62 11.9082 122.62 8.86176C122.62 6.38112 125.144 5.05376 128.103 5.05376C131.084 5.05376 133.195 6.2288 133.979 7.8608L131.563 9.2752C131.237 7.9696 129.909 7.14272 128.06 7.14272C126.275 7.14272 125.253 7.73024 125.253 8.64416C125.253 9.73216 126.537 9.77568 128.43 9.86272C130.323 9.928 134.218 9.99328 134.218 13.279C134.218 15.8032 131.585 17.3046 128.299 17.3046Z" fill="#05B4FF"/>
</svg>
